<svg id="Layer_1" enable-background="new 0 0 256 256" height="512" viewBox="0 0 256 256" width="512" xmlns="http://www.w3.org/2000/svg"><circle cx="172.109" cy="65.882" fill="#eaa97d" r="57.882"/><circle cx="172.109" cy="65.882" fill="#ffea92" r="41.33"/><path d="m172.109 125.764c-33.019 0-59.882-26.863-59.882-59.882s26.864-59.882 59.882-59.882 59.882 26.863 59.882 59.882-26.863 59.882-59.882 59.882zm0-115.764c-30.813 0-55.882 25.068-55.882 55.882s25.068 55.882 55.882 55.882 55.882-25.068 55.882-55.882-25.068-55.882-55.882-55.882z" fill="#3762cc"/><path d="m163.459 73.662c.966 9.905 4.139 14.856 9.519 14.856 2.014 0 3.855-.482 5.524-1.448 1.669-.965 3.276-3.228 4.821-6.787.993-2.317 1.849-3.759 2.566-4.324s1.489-.849 2.317-.849c1.655 0 2.944.476 3.869 1.428.924.952 1.387 2.283 1.387 3.994 0 4.056-1.987 7.801-5.96 11.235-3.973 3.435-8.787 5.152-14.442 5.152-5.297 0-9.919-1.924-13.863-5.773-3.946-3.849-6.305-9.677-7.077-17.484h-5.256c-.496 0-.745-.358-.745-1.076 0-.689.263-1.558.787-2.607.523-1.048.965-1.573 1.324-1.573h3.559v-1.49c0-1.214.055-2.965.166-5.256h-5.091c-.496 0-.745-.345-.745-1.035 0-.717.263-1.6.787-2.648.523-1.048.965-1.573 1.324-1.573h4.138c1.793-14.374 8.58-21.561 20.361-21.561 5.187 0 9.655 1.338 13.408 4.014 3.752 2.676 5.628 6 5.628 9.973 0 1.353-.441 2.498-1.324 3.435-.883.938-1.959 1.407-3.228 1.407-1.407 0-2.436-.358-3.083-1.076-.649-.717-1.29-1.821-1.925-3.311-.801-1.958-1.752-3.456-2.855-4.49s-2.979-1.552-5.628-1.552c-3.035 0-5.374 1.063-7.015 3.187-1.642 2.125-2.697 5.449-3.166 9.973h13.325c.552 0 .828.359.828 1.076 0 .773-.256 1.663-.766 2.669-.511 1.007-.959 1.51-1.345 1.51h-12.374l-.083 4.056c0 1.242.027 2.138.083 2.69h13.656c.552 0 .828.345.828 1.035 0 .8-.256 1.704-.766 2.71-.511 1.007-.959 1.511-1.345 1.511h-12.123z" fill="#eaa97d"/><circle cx="83.891" cy="120" fill="#eaa97d" r="57.882"/><circle cx="83.891" cy="120" fill="#ffea92" r="41.33"/><path d="m83.891 179.882c-33.019 0-59.882-26.863-59.882-59.882s26.863-59.882 59.882-59.882 59.881 26.863 59.881 59.882-26.863 59.882-59.881 59.882zm0-115.764c-30.813 0-55.882 25.068-55.882 55.882s25.068 55.882 55.882 55.882 55.882-25.068 55.882-55.882-25.069-55.882-55.882-55.882z" fill="#3762cc"/><path d="m69.282 133.379h9.312v-5.959h-9.312c-3.918 0-5.876-1.296-5.876-3.89 0-2.538 1.958-3.807 5.876-3.807h5.256l-12.374-19.409c-.993-1.545-1.642-2.648-1.944-3.311-.305-.662-.456-1.393-.456-2.193 0-1.434.435-2.586 1.304-3.456s1.993-1.304 3.373-1.304c1.407 0 2.545.428 3.414 1.283s1.883 2.234 3.042 4.138l13.367 20.94 11.96-19.74c.44-.772.91-1.579 1.406-2.421.497-.841.979-1.559 1.449-2.152.469-.593 1.055-1.082 1.759-1.469.703-.386 1.537-.58 2.503-.58 1.38 0 2.504.421 3.373 1.262.869.842 1.304 1.87 1.304 3.083 0 .966-.173 1.849-.518 2.649s-.89 1.807-1.635 3.021l-11.918 19.657h5.256c3.89 0 5.835 1.269 5.835 3.807 0 2.594-1.945 3.89-5.835 3.89h-9.353v5.959h9.354c3.89 0 5.835 1.297 5.835 3.89 0 2.539-1.945 3.808-5.835 3.808h-9.354v3.311c0 5.601-1.861 8.401-5.586 8.401-3.78 0-5.67-2.8-5.67-8.401v-3.311h-9.312c-3.918 0-5.876-1.269-5.876-3.808 0-2.59 1.958-3.888 5.876-3.888z" fill="#eaa97d"/><circle cx="152.109" cy="190.118" fill="#eaa97d" r="57.882"/><circle cx="152.109" cy="190.118" fill="#ffea92" r="41.33"/><path d="m148.6 218.447c-7.727-1.166-13.324-5.951-13.958-13.77-.066-.814.595-1.508 1.412-1.508h6.114c.698 0 1.277.514 1.394 1.203.463 2.72 1.824 4.847 4.191 5.97.945.448 2.039-.225 2.039-1.271v-14.766c0-.633-.421-1.187-1.031-1.359-6.946-1.965-14.179-4.53-14.179-15.381 0-8.644 5.688-14.707 14.028-16.004.682-.106 1.181-.699 1.181-1.389v-3.972c0-.78.632-1.412 1.412-1.412h1.884c.78 0 1.412.632 1.412 1.412v3.887c0 .69.498 1.287 1.18 1.39 7.195 1.086 12.169 5.567 13.28 13.272.122.847-.548 1.605-1.403 1.605h-6.056c-.676 0-1.238-.484-1.385-1.144-.452-2.031-1.613-3.872-3.406-5.047-.949-.622-2.211.034-2.211 1.169v14.199c0 .638.429 1.196 1.045 1.363 6.937 1.887 14.093 4.384 14.093 15.227 0 7.514-4.93 14.804-13.958 16.244-.681.109-1.18.699-1.18 1.388v3.975c0 .78-.632 1.412-1.412 1.412h-1.884c-.78 0-1.412-.632-1.412-1.412v-3.889c.001-.694-.504-1.288-1.19-1.392zm1.191-35.319v-12.417c0-.955-.939-1.664-1.84-1.347-2.985 1.048-4.967 3.589-4.967 7.716 0 3.821 1.927 5.923 4.76 7.313.942.463 2.047-.214 2.047-1.265zm4.708 13.581v12.401c0 1.026 1.056 1.7 1.997 1.29 3.096-1.347 4.813-4.29 4.813-7.797 0-3.759-1.932-5.795-4.77-7.163-.943-.454-2.04.223-2.04 1.269z" fill="#eaa97d"/><path d="m152.109 250c-33.019 0-59.882-26.863-59.882-59.882s26.863-59.882 59.882-59.882 59.882 26.863 59.882 59.882-26.863 59.882-59.882 59.882zm0-115.764c-30.813 0-55.882 25.068-55.882 55.882s25.069 55.882 55.882 55.882 55.882-25.068 55.882-55.882-25.068-55.882-55.882-55.882z" fill="#3762cc"/></svg>