<svg id="Layer_1" enable-background="new 0 0 256 256" height="512" viewBox="0 0 256 256" width="512" xmlns="http://www.w3.org/2000/svg"><path d="m188.469 90.589c6.143-7.54 7.533-19.096-.52-30.174-.306-.421-.686-.801-1.107-1.107-11.312-8.211-23.172-6.571-30.696-.053-1.524 1.32-3.667 1.728-5.476.837-3-1.477-6.373-2.31-9.943-2.31-.103 0-.203.014-.306.015-2.441-9.851-11.315-17.163-21.92-17.163-6.026 0-11.496 2.361-15.547 6.205-1.775 1.684-4.482 2.034-6.473.611-3.691-2.637-8.204-4.195-13.088-4.195-10.394 0-19.135 7.019-21.774 16.573-.514 1.862-2.007 3.276-3.903 3.647-10.394 2.035-18.241 11.169-18.241 22.158 0 2.07.285 4.071.813 5.972.627 2.262-.336 4.637-2.382 5.788-6.884 3.872-11.538 11.237-11.538 19.698 0 2.415.387 4.737 1.088 6.918l-.004.004.024.052c.562 1.733 1.334 3.366 2.275 4.887.088.141.168.287.239.437l32.608 69.05c.826 1.749 2.587 2.865 4.521 2.865h98.767c2.295 0 4.296-1.563 4.851-3.79l20.13-80.717-.014-.026c.838-2.362 1.317-4.895 1.317-7.544 0-4.738-1.462-9.131-3.956-12.763-1.227-1.79-1.116-4.192.255-5.875z" fill="#6bdddd"/><path d="m165.886 203.304h-98.768c-2.693 0-5.178-1.574-6.329-4.011l-32.607-69.05c-.038-.08-.082-.159-.13-.236-1.044-1.686-1.874-3.467-2.47-5.297-.01-.03-.02-.06-.028-.09l-.003.001c-.785-2.447-1.184-4.98-1.184-7.53 0-8.868 4.812-17.083 12.558-21.44 1.227-.69 1.817-2.134 1.436-3.51-.588-2.118-.886-4.308-.886-6.507 0-11.726 8.352-21.869 19.857-24.12 1.139-.223 2.043-1.072 2.359-2.217 2.934-10.621 12.68-18.04 23.701-18.04 5.14 0 10.067 1.579 14.25 4.566 1.15.824 2.805.64 3.934-.434 4.591-4.356 10.601-6.755 16.924-6.755 10.8 0 20.225 6.988 23.438 17.178 3.357.161 6.586.995 9.614 2.486 1.021.503 2.312.287 3.283-.556 9.211-7.979 22.235-7.999 33.181-.053.584.423 1.12.958 1.549 1.547 7.741 10.649 7.919 23.451.454 32.615-.813.997-.877 2.429-.155 3.479 2.817 4.102 4.307 8.906 4.307 13.895 0 2.677-.45 5.348-1.338 7.942-.007.037-.015.075-.024.112l-20.131 80.717c-.78 3.126-3.573 5.308-6.792 5.308zm-136.533-79.926c.01.026.019.05.025.071.498 1.534 1.195 3.031 2.073 4.45.127.204.243.414.347.633l32.608 69.052c.493 1.045 1.558 1.72 2.712 1.72h98.768c1.38 0 2.577-.936 2.911-2.274l20.072-80.481c.016-.151.049-.301.1-.445.798-2.249 1.202-4.563 1.202-6.876 0-4.176-1.246-8.197-3.604-11.63-1.72-2.506-1.575-5.907.352-8.271 5.001-6.138 7.473-16.647-.587-27.734-.184-.252-.413-.481-.663-.663-11.403-8.278-22.326-5.261-28.213-.161-2.188 1.896-5.198 2.336-7.668 1.121-2.837-1.396-5.885-2.104-9.061-2.104-.115.01-.204.019-.307.015-.919 0-1.72-.626-1.941-1.52-2.282-9.211-10.497-15.644-19.979-15.644-5.294 0-10.326 2.009-14.17 5.656-2.519 2.39-6.308 2.719-9.013.787-3.5-2.5-7.623-3.821-11.925-3.821-9.229 0-17.39 6.212-19.846 15.105-.723 2.616-2.81 4.561-5.447 5.077-9.633 1.885-16.625 10.377-16.625 20.194 0 1.838.249 3.667.74 5.438.875 3.152-.493 6.47-3.329 8.065-6.488 3.649-10.519 10.529-10.519 17.954.001 2.126.333 4.241.987 6.286zm159.116-32.789h.01z" fill="#3762cc"/><path d="m99.491 88.527c-1.496 0-2.733-1.212-2.825-2.766l-1.253-21.285c-.1-1.695 1.194-3.126 2.825-3.126h2.506c1.631 0 2.924 1.431 2.825 3.126l-1.253 21.285c-.092 1.554-1.329 2.766-2.825 2.766z" fill="#eaa97d"/><path d="m99.491 90.527c-2.55 0-4.668-2.042-4.821-4.648l-1.253-21.286c-.081-1.379.409-2.739 1.347-3.733.918-.974 2.152-1.51 3.475-1.51h2.506c1.322 0 2.556.536 3.474 1.51.938.994 1.428 2.354 1.347 3.733l-1.253 21.285c-.155 2.607-2.273 4.649-4.822 4.649zm-1.253-27.177c-.269 0-.455.139-.564.254-.108.115-.287.366-.265.755l1.253 21.285c.029.495.394.884.829.884s.799-.389.828-.885l1.253-21.284c.022-.389-.156-.64-.265-.755-.109-.116-.296-.254-.563-.254z" fill="#3762cc"/><path d="m124.72 79.43c-8.898-1.914-17.901.877-25.296 6.941-7.395-6.065-16.399-8.855-25.296-6.941-17.956 3.862-28.68 25.411-23.952 48.13 4.728 22.72 23.117 38.007 41.073 34.145 2.93-.63 5.666-1.734 8.175-3.234 2.509 1.5 5.245 2.604 8.175 3.234 17.956 3.862 36.345-11.425 41.073-34.145 4.727-22.719-5.996-44.268-23.952-48.13z" fill="#f9a7a7"/><path d="m113.143 164.292c-2.006 0-4.002-.208-5.966-.631-2.7-.581-5.303-1.551-7.754-2.887-2.45 1.336-5.054 2.306-7.754 2.887-7.82 1.68-16.171-.024-23.517-4.806-9.929-6.46-17.195-17.719-19.936-30.888-4.943-23.756 6.491-46.407 25.489-50.492 8.741-1.883 17.812.374 25.717 6.351 7.905-5.977 16.981-8.231 25.718-6.351 18.998 4.085 30.433 26.736 25.488 50.492-2.74 13.169-10.006 24.427-19.934 30.888-5.501 3.581-11.567 5.437-17.551 5.437zm-13.72-7.82c.355 0 .71.095 1.026.283 2.37 1.417 4.917 2.425 7.569 2.996 6.866 1.476 13.955.008 20.495-4.248 9.041-5.884 15.675-16.217 18.199-28.35 4.498-21.611-5.557-42.143-22.414-45.768-7.994-1.721-16.376.603-23.607 6.533-.738.604-1.799.604-2.537 0-7.232-5.932-15.619-8.254-23.606-6.533-16.856 3.625-26.912 24.156-22.415 45.768 2.525 12.133 9.159 22.466 18.201 28.35 6.539 4.256 13.625 5.726 20.493 4.248 2.653-.571 5.2-1.579 7.569-2.996.317-.189.671-.283 1.027-.283z" fill="#3762cc"/><path d="m165.642 203.001c-15.659-4.196-24.952-20.291-20.756-35.95l36.786-137.288c4.196-15.659 20.291-24.952 35.95-20.756 15.659 4.196 24.952 20.291 20.756 35.95l-36.786 137.288c-4.196 15.659-20.292 24.952-35.95 20.756z" fill="#eaa97d"/><path d="m186.766 69.449-14.674-3.932 5.598-20.892 14.674 3.932c5.769 1.546 9.193 7.476 7.647 13.245-1.547 5.769-7.476 9.193-13.245 7.647z" fill="#f9cfcf"/><path d="m174.77 114.217-14.674-3.932 5.598-20.892 14.674 3.932c5.769 1.546 9.193 7.476 7.647 13.245-1.546 5.769-7.476 9.193-13.245 7.647z" fill="#f9cfcf"/><path d="m162.775 158.985-14.674-3.932 5.598-20.892 14.674 3.932c5.769 1.546 9.193 7.476 7.647 13.245-1.547 5.769-7.476 9.193-13.245 7.647z" fill="#f9cfcf"/><path d="m173.231 206.005c-2.679 0-5.399-.347-8.107-1.072-8.09-2.167-14.851-7.354-19.038-14.607s-5.3-15.702-3.132-23.792l36.786-137.288c4.475-16.699 21.696-26.645 38.399-22.17 16.699 4.474 26.645 21.699 22.17 38.399l-36.786 137.287c-3.749 13.992-16.45 23.242-30.292 23.243zm36.8-196c-12.077 0-23.156 8.069-26.428 20.276l-36.786 137.287c-1.891 7.058-.921 14.429 2.732 20.757 3.653 6.327 9.552 10.854 16.609 12.744 14.57 3.908 29.598-4.772 33.501-19.342l36.787-137.287c3.903-14.569-4.773-29.598-19.342-33.501-2.361-.632-4.737-.934-7.073-.934z" fill="#3762cc"/><path d="m189.585 71.823c-1.113 0-2.233-.146-3.337-.442l-14.674-3.932c-.513-.137-.949-.473-1.215-.932-.265-.459-.337-1.005-.199-1.518l5.598-20.892c.286-1.066 1.378-1.704 2.449-1.414l14.674 3.932c6.824 1.828 10.89 8.868 9.062 15.693-.886 3.307-3.006 6.07-5.971 7.781-1.975 1.142-4.166 1.724-6.387 1.724zm-15.044-7.719 12.742 3.414c4.693 1.261 9.537-1.537 10.796-6.232 1.257-4.695-1.539-9.538-6.233-10.796l-12.742-3.414z" fill="#3762cc"/><path d="m177.59 116.591c-1.113 0-2.233-.146-3.337-.442l-14.675-3.932c-.513-.137-.949-.473-1.215-.932-.265-.459-.337-1.005-.199-1.518l5.599-20.892c.286-1.066 1.379-1.703 2.449-1.414l14.674 3.932c6.825 1.829 10.89 8.869 9.061 15.694-.886 3.306-3.006 6.069-5.97 7.78-1.975 1.142-4.166 1.724-6.387 1.724zm-15.045-7.72 12.743 3.414c2.274.606 4.648.296 6.688-.881s3.498-3.078 4.107-5.352c1.258-4.694-1.538-9.538-6.232-10.796l-12.742-3.414z" fill="#3762cc"/><path d="m165.57 161.354c-1.095 0-2.207-.142-3.313-.438l-14.674-3.932c-.513-.137-.949-.473-1.215-.932-.265-.459-.337-1.005-.199-1.518l5.598-20.892c.285-1.066 1.378-1.703 2.449-1.414l14.674 3.932c3.307.886 6.07 3.006 7.781 5.971 1.712 2.964 2.166 6.417 1.28 9.724-1.532 5.718-6.723 9.499-12.381 9.499zm-15.02-7.715 12.742 3.414c4.693 1.261 9.537-1.537 10.796-6.232.609-2.274.297-4.649-.881-6.688-1.177-2.039-3.078-3.498-5.353-4.107l-12.742-3.414z" fill="#3762cc"/><path d="m28.794 147.292 6.916 83.866c.785 9.518 8.738 16.842 18.288 16.842h66.429 9.548 66.428c9.55 0 17.503-7.324 18.288-16.841l6.916-83.866h-192.813z" fill="#4671c6"/><path d="m232.146 142.48 1.621-19.661c.252-3.055-2.16-5.674-5.225-5.674h-206.684c-3.066 0-5.477 2.619-5.225 5.674l1.621 19.661c.224 2.719 2.497 4.812 5.225 4.812h203.442c2.729 0 5.001-2.092 5.225-4.812z" fill="#4671c6"/><path d="m134.149 146.978h-17.897c-3.802 0-6.884-3.082-6.884-6.884v-16.064c0-3.802 3.082-6.884 6.884-6.884h17.897c3.802 0 6.884 3.082 6.884 6.884v16.063c0 3.802-3.082 6.885-6.884 6.885z" fill="#ffea92"/><path d="m125.201 230.749c-5.429 0-9.831-4.401-9.831-9.83v-50.689c0-5.429 4.401-9.83 9.83-9.83 5.429 0 9.83 4.401 9.83 9.83v50.689c.001 5.429-4.4 9.83-9.829 9.83z" fill="#e0ebfc"/><path d="m177.63 230.749c-5.429 0-9.831-4.401-9.831-9.83v-50.689c0-5.429 4.401-9.83 9.83-9.83 5.429 0 9.83 4.401 9.83 9.83v50.689c.002 5.429-4.4 9.83-9.829 9.83z" fill="#e0ebfc"/><path d="m72.771 230.749c-5.429 0-9.831-4.401-9.831-9.83v-50.689c0-5.429 4.401-9.83 9.83-9.83 5.429 0 9.83 4.401 9.83 9.83v50.689c.002 5.429-4.399 9.83-9.829 9.83z" fill="#e0ebfc"/><g fill="#3762cc"><path d="m226.921 149.292h-203.442c-3.74 0-6.911-2.92-7.219-6.646l-1.621-19.662c-.166-2.011.523-4.017 1.891-5.501 1.367-1.485 3.31-2.337 5.328-2.337h206.685c2.019 0 3.96.852 5.327 2.336 1.367 1.485 2.057 3.49 1.891 5.502l-1.621 19.661v.001c-.308 3.726-3.479 6.646-7.219 6.646zm-205.063-30.146c-.917 0-1.765.372-2.386 1.047-.621.674-.922 1.549-.847 2.463l1.621 19.661c.138 1.668 1.558 2.976 3.232 2.976h203.441c1.675 0 3.095-1.308 3.232-2.976l1.621-19.661c.075-.914-.226-1.789-.847-2.464s-1.468-1.046-2.385-1.046zm210.288 23.334h.01z"/><path d="m196.403 250h-142.405c-10.509 0-19.417-8.204-20.281-18.677l-6.916-83.867c-.046-.557.144-1.107.522-1.519.378-.411.912-.646 1.471-.646h192.813c.559 0 1.093.234 1.471.646.379.411.568.962.522 1.519l-6.916 83.867c-.864 10.473-9.772 18.677-20.281 18.677zm-165.437-100.708 6.737 81.703c.694 8.414 7.852 15.005 16.295 15.005h142.405c8.443 0 15.601-6.591 16.295-15.005l6.737-81.703z"/><path d="m125.201 232.749c-6.523 0-11.831-5.307-11.831-11.83v-50.689c0-6.523 5.308-11.831 11.831-11.831s11.83 5.308 11.83 11.831v50.688c0 6.524-5.306 11.831-11.83 11.831zm0-70.35c-4.318 0-7.831 3.513-7.831 7.831v50.688c0 4.317 3.513 7.83 7.831 7.83 4.317 0 7.83-3.513 7.83-7.83v-50.688c0-4.318-3.512-7.831-7.83-7.831z"/><path d="m177.63 232.749c-6.523 0-11.83-5.307-11.83-11.83v-50.689c0-6.523 5.307-11.831 11.83-11.831s11.831 5.308 11.831 11.831v50.688c0 6.524-5.308 11.831-11.831 11.831zm0-70.35c-4.317 0-7.83 3.513-7.83 7.831v50.688c0 4.317 3.513 7.83 7.83 7.83 4.318 0 7.831-3.513 7.831-7.83v-50.688c0-4.318-3.513-7.831-7.831-7.831z"/><path d="m72.771 232.749c-6.523 0-11.831-5.307-11.831-11.83v-50.689c0-6.523 5.308-11.831 11.831-11.831s11.83 5.308 11.83 11.831v50.688c.001 6.524-5.306 11.831-11.83 11.831zm0-70.35c-4.318 0-7.831 3.513-7.831 7.831v50.688c0 4.317 3.513 7.83 7.831 7.83 4.317 0 7.83-3.513 7.83-7.83v-50.688c.001-4.318-3.512-7.831-7.83-7.831z"/><path d="m134.148 148.978h-17.896c-4.899 0-8.885-3.985-8.885-8.884v-16.064c0-4.899 3.985-8.885 8.885-8.885h17.896c4.899 0 8.885 3.985 8.885 8.885v16.063c0 4.899-3.985 8.885-8.885 8.885zm-17.896-29.832c-2.693 0-4.885 2.191-4.885 4.885v16.063c0 2.693 2.191 4.884 4.885 4.884h17.896c2.693 0 4.885-2.19 4.885-4.884v-16.064c0-2.693-2.191-4.885-4.885-4.885h-17.896z"/></g><path d="m140.908 179.91-22.837-41.106c-3.111-5.6.938-12.483 7.345-12.483 3.051 0 5.863 1.654 7.345 4.322l20.131 36.236c.925 1.664 2.679 2.697 4.583 2.697h64.867c4.343 0 7.864 3.521 7.864 7.864 0 4.343-3.521 7.864-7.864 7.864h-72.268c-3.808 0-7.317-2.065-9.166-5.394z" fill="#a4c9ff"/><path d="m222.343 187.304h-72.269c-4.531 0-8.714-2.461-10.914-6.422l-22.837-41.106c-1.81-3.256-1.762-7.117.127-10.327 1.889-3.211 5.24-5.128 8.966-5.128 3.776 0 7.261 2.051 9.093 5.352l20.131 36.234c.572 1.029 1.658 1.669 2.836 1.669h64.867c5.439 0 9.864 4.425 9.864 9.864s-4.425 9.864-9.864 9.864zm-79.687-8.366c1.496 2.692 4.339 4.365 7.418 4.365h72.269c3.233 0 5.864-2.631 5.864-5.864s-2.631-5.864-5.864-5.864h-64.867c-2.629 0-5.056-1.428-6.332-3.727l-20.131-36.234c-1.128-2.032-3.272-3.294-5.597-3.294-2.293 0-4.355 1.18-5.519 3.156-1.162 1.976-1.191 4.352-.078 6.355z" fill="#3762cc"/></svg>